<?xml version="1.0" standalone="no"?>
<!DOCTYPE svg PUBLIC "-//W3C//DTD SVG 20010904//EN"
 "http://www.w3.org/TR/2001/REC-SVG-20010904/DTD/svg10.dtd">
<svg version="1.0" xmlns="http://www.w3.org/2000/svg"
 width="1102.000000pt" height="1008.000000pt" viewBox="0 0 1102.000000 1008.000000"
 preserveAspectRatio="xMidYMid meet">
<metadata>
Created by potrace 1.13, written by Peter Selinger 2001-2015
</metadata>
<g transform="translate(0.000000,1008.000000) scale(0.100000,-0.100000)"
fill="#000000" stroke="none">
<path d="M6395 10021 c-3 -12 -4 -29 -1 -39 4 -12 -1 -26 -14 -37 -11 -10 -20
-23 -20 -30 0 -6 -13 -24 -30 -40 -31 -30 -38 -63 -18 -83 18 -18 53 -14 73 8
21 23 75 27 75 6 0 -18 -23 -43 -81 -89 -51 -40 -75 -81 -85 -146 l-7 -43 44
28 c65 40 121 55 190 47 l59 -6 17 39 c27 61 24 205 -6 266 -26 54 -84 98
-128 98 -21 0 -37 7 -46 21 l-15 21 -7 -21z"/>
<path d="M6983 9999 c-7 -7 -13 -18 -13 -24 0 -6 -16 -19 -35 -29 -21 -12 -41
-34 -54 -60 -10 -23 -26 -48 -35 -55 -23 -19 -20 -46 7 -68 20 -17 64 -129 54
-139 -2 -3 -15 24 -27 58 -24 65 -39 92 -48 84 -2 -3 10 -41 28 -86 l34 -80
97 0 97 0 32 80 c18 45 30 83 27 87 -7 6 -34 -52 -57 -122 -8 -22 -15 -33 -17
-25 -2 8 5 41 16 73 11 31 16 57 11 57 -8 0 -16 -23 -36 -103 -3 -15 -11 -30
-16 -33 -6 -4 -8 1 -4 12 9 31 25 108 26 122 0 7 -4 10 -10 7 -5 -3 -10 -15
-10 -25 0 -29 -23 -126 -27 -115 -2 6 1 39 5 73 5 34 5 62 1 62 -4 0 -11 -33
-17 -72 l-9 -73 -2 78 c-1 55 -4 76 -12 71 -8 -4 -10 -29 -6 -70 2 -35 1 -64
-3 -64 -5 0 -10 28 -12 63 -5 80 4 88 90 82 39 -3 71 0 79 7 20 17 15 46 -12
70 -14 12 -25 29 -25 38 0 21 -32 56 -70 75 -16 8 -30 24 -32 36 -2 16 -5 18
-15 8z"/>
<path d="M7981 9940 c-45 -23 -49 -29 -55 -69 -5 -36 -2 -49 14 -66 10 -11 26
-40 35 -65 9 -24 23 -52 32 -62 24 -26 75 -33 112 -13 33 17 45 38 62 114 5
25 17 53 25 62 10 11 12 28 8 62 -7 46 -12 51 -51 50 -7 -1 -13 3 -13 9 0 19
-119 4 -169 -22z m159 -126 c0 -9 7 -22 15 -28 35 -26 -26 -126 -77 -126 -36
0 -76 29 -86 62 -21 68 -22 86 -8 91 11 5 14 -2 11 -31 -4 -33 -3 -34 3 -7 6
22 13 30 29 29 12 0 22 2 21 5 -1 14 4 16 47 19 37 2 45 0 45 -14z"/>
<path d="M8003 9473 c-34 -7 -81 -59 -88 -97 -15 -76 52 -149 130 -144 37 2
40 1 46 -28 8 -41 67 -144 87 -151 18 -8 46 9 50 30 5 23 -69 144 -95 156
l-23 10 25 37 c28 42 31 70 11 119 -22 52 -82 81 -143 68z m92 -59 c53 -57 16
-144 -60 -144 -25 0 -44 8 -60 25 -54 53 -16 145 60 145 26 0 43 -7 60 -26z"/>
<path d="M10172 9455 c-51 -22 -85 -50 -106 -86 -10 -17 -14 -29 -7 -25 12 8
11 -2 -6 -71 l-6 -28 -7 30 -8 30 0 -30 c0 -16 3 -39 7 -50 7 -16 9 -14 14 13
6 27 10 32 29 27 18 -4 28 2 43 28 17 27 19 37 10 64 -8 25 -14 30 -25 23 -29
-18 -33 -10 -9 16 25 27 79 59 79 48 0 -4 -8 -17 -17 -28 -18 -21 -18 -21 4
-3 13 12 34 18 55 16 18 -1 43 1 55 5 31 10 103 -38 103 -69 0 -13 -6 -26 -12
-29 -7 -3 -5 -4 6 -3 12 1 25 -10 37 -33 25 -47 25 -10 0 45 -24 52 -66 91
-120 110 -53 18 -76 18 -119 0z"/>
<path d="M9700 9426 c0 -8 5 -18 10 -21 6 -3 10 -21 10 -40 0 -29 -6 -37 -47
-60 -49 -29 -80 -25 -77 9 2 19 -11 20 -51 1 l-30 -13 36 -1 c27 -1 39 -7 48
-25 17 -31 8 -45 -23 -39 -31 6 -76 -35 -76 -70 0 -30 39 -67 71 -67 55 0 89
71 53 111 -9 10 -13 23 -9 29 9 15 25 3 25 -19 0 -28 26 -46 44 -31 8 6 12 18
9 26 -6 17 44 97 56 89 5 -3 7 -22 4 -43 -4 -29 -1 -41 16 -56 67 -61 163 32
100 95 -18 18 -29 20 -64 16 -43 -6 -55 1 -60 38 -3 17 -35 85 -40 85 -3 0 -5
-6 -5 -14z"/>
<path d="M9154 8885 l-24 -24 -41 21 c-31 16 -46 19 -58 11 -22 -14 -25 -54
-6 -99 l15 -37 -45 -43 c-25 -24 -45 -49 -45 -56 1 -29 20 -42 66 -44 44 -2
48 -4 58 -35 14 -43 43 -49 75 -15 l23 25 28 -20 c16 -13 38 -19 56 -17 24 2
29 8 32 34 2 18 -4 48 -12 68 l-15 37 39 35 c71 64 63 104 -21 104 -43 0 -49
3 -49 21 0 29 -18 59 -36 59 -8 0 -26 -11 -40 -25z"/>
<path d="M7301 8843 c-1 -29 3 -62 8 -75 5 -13 17 -49 27 -82 11 -35 30 -72
51 -94 18 -19 33 -38 33 -42 0 -3 10 -16 23 -28 34 -32 78 -27 46 5 -7 7 3 6
27 -2 22 -8 56 -14 77 -15 37 0 38 0 23 22 -9 12 -16 32 -16 43 1 15 4 12 15
-12 19 -44 51 -61 103 -56 48 6 56 20 15 26 l-28 3 33 13 c17 7 32 17 32 21 0
14 -61 57 -119 83 -29 14 -67 39 -85 55 -24 24 -37 29 -59 25 -16 -3 -31 -12
-34 -19 -3 -8 -15 -14 -27 -14 -25 0 -106 36 -107 47 0 4 -9 40 -19 78 l-19
70 0 -52z"/>
<path d="M6873 8815 c-46 -20 -57 -47 -33 -78 11 -14 31 -28 46 -31 17 -5 24
-12 20 -21 -7 -19 8 -19 24 0 7 8 16 15 21 15 4 0 19 11 33 25 14 14 34 25 44
25 27 0 33 10 21 32 -23 43 -115 60 -176 33z"/>
<path d="M8023 8342 c24 -25 27 -36 27 -95 0 -38 -4 -67 -10 -67 -6 0 -10 -38
-10 -95 l0 -95 45 0 c43 0 45 1 45 29 0 15 3 56 6 90 6 56 5 63 -12 67 -16 4
-19 14 -18 70 2 53 6 70 25 90 12 13 20 26 17 29 -3 3 -11 -1 -18 -10 -16 -19
-74 -19 -90 0 -7 8 -17 15 -23 15 -6 0 1 -13 16 -28z"/>
<path d="M6375 8315 c-22 -8 -59 -34 -82 -58 -105 -111 -74 -273 65 -343 43
-22 62 -26 106 -22 109 9 194 92 204 199 6 67 -18 128 -72 177 -65 60 -140 76
-221 47z m152 -44 c46 -21 89 -77 99 -129 4 -17 4 -32 1 -32 -3 0 -31 14 -62
30 -74 39 -147 41 -223 5 -69 -32 -76 -32 -67 3 18 76 100 142 175 142 19 0
54 -9 77 -19z"/>
<path d="M9997 8293 c-3 -21 -9 -68 -13 -105 l-7 -68 47 0 c25 0 46 5 46 10 0
18 14 11 78 -41 l62 -52 56 11 c61 13 114 45 114 69 0 12 7 14 29 10 15 -3 38
-3 50 0 21 5 22 10 16 51 -4 25 -12 62 -19 81 l-11 36 -70 1 c-39 0 -84 6
-101 14 -38 16 -78 7 -110 -25 -28 -28 -32 -73 -7 -82 9 -4 33 3 54 15 l38 22
48 -51 c26 -28 52 -57 56 -65 14 -25 -14 -15 -50 17 -46 40 -56 28 -13 -16 44
-46 31 -57 -17 -15 -21 19 -39 28 -41 22 -2 -7 9 -23 25 -36 17 -16 23 -25 14
-26 -8 0 -28 12 -43 27 -21 20 -28 23 -28 11 0 -9 7 -21 15 -28 9 -7 13 -15
11 -18 -8 -8 -136 99 -136 113 0 7 5 36 12 64 8 38 16 51 29 51 10 0 20 4 23
9 3 4 -20 11 -52 15 -31 3 -66 8 -78 12 -18 5 -22 0 -27 -33z"/>
<path d="M7965 8270 c4 -13 2 -20 -5 -18 -21 5 -35 -28 -23 -54 18 -37 22 -88
6 -88 -9 0 -13 -17 -13 -60 l0 -60 45 0 45 0 0 55 c0 36 -5 57 -13 61 -13 5
-12 69 3 89 10 15 -5 60 -19 57 -8 -2 -10 4 -6 18 5 14 2 20 -10 20 -12 0 -15
-6 -10 -20z"/>
<path d="M9670 8173 c-91 -13 -167 -26 -169 -28 -2 -3 2 -11 9 -20 10 -12 41
-15 165 -15 l153 0 36 40 c20 22 36 42 36 45 0 9 -63 3 -230 -22z"/>
<path d="M7517 7874 c-4 -4 -7 -42 -7 -85 l0 -77 -100 -62 c-82 -51 -100 -66
-100 -86 0 -13 4 -24 8 -24 5 0 48 14 97 30 49 17 90 30 92 30 2 0 3 -22 3
-48 0 -39 -5 -53 -25 -72 -14 -13 -25 -32 -25 -43 0 -16 4 -18 28 -12 15 5 34
8 42 8 8 0 27 -3 43 -8 23 -6 27 -4 27 12 0 11 -11 30 -25 43 -20 19 -25 33
-25 72 0 26 1 48 3 48 2 0 43 -13 92 -30 49 -16 92 -30 97 -30 4 0 8 11 8 24
0 20 -18 35 -100 86 l-99 61 -3 81 c-3 75 -13 100 -31 82z"/>
<path d="M6915 7838 c4 -13 13 -43 20 -68 12 -44 13 -45 59 -48 45 -3 46 -3
46 28 0 17 7 47 15 67 8 19 15 37 15 39 0 2 -37 4 -81 4 -80 0 -81 0 -74 -22z"/>
<path d="M9200 7655 c0 -57 4 -95 10 -95 6 0 10 5 10 10 0 6 14 10 30 10 17 0
30 -4 30 -10 0 -5 5 -10 10 -10 6 0 10 38 10 95 0 57 -4 95 -10 95 -5 0 -10
-7 -10 -15 0 -10 -10 -15 -30 -15 -20 0 -30 5 -30 15 0 8 -4 15 -10 15 -6 0
-10 -38 -10 -95z"/>
<path d="M6889 7699 c-18 -18 -21 -30 -16 -73 3 -29 16 -83 29 -121 l24 -70
60 -3 61 -3 17 38 c21 48 46 140 46 174 0 30 -35 79 -56 79 -8 0 -12 -4 -9
-10 3 -5 0 -8 -7 -6 -7 3 -39 7 -70 10 -50 5 -61 3 -79 -15z"/>
<path d="M9578 7240 c-22 -24 -38 -51 -38 -65 0 -37 110 -165 142 -165 5 0 31
21 58 48 50 48 55 62 52 140 -1 17 -11 41 -22 52 -22 22 -70 27 -70 8 0 -6 -7
-4 -18 5 -30 28 -62 20 -104 -23z"/>
<path d="M8550 7260 c0 -5 -7 -10 -15 -10 -8 0 -15 -7 -15 -15 0 -8 7 -15 15
-15 8 0 15 5 15 10 0 6 27 10 60 10 33 0 60 -4 60 -10 0 -5 7 -10 15 -10 8 0
15 -5 15 -11 0 -6 6 -17 14 -25 8 -8 19 -14 25 -14 7 0 11 -24 11 -60 0 -47
-3 -60 -15 -60 -11 0 -15 12 -15 46 0 43 -16 74 -38 74 -6 0 -12 -6 -15 -12
-2 -8 -8 -9 -13 -4 -5 5 -4 11 4 13 16 6 15 21 -2 39 -20 20 -106 19 -106 -1
0 -11 13 -15 53 -15 l52 0 -27 -24 c-16 -13 -28 -28 -28 -35 0 -6 -4 -11 -10
-11 -18 0 -140 -130 -140 -150 0 -39 40 -22 106 45 35 35 64 69 64 75 0 5 6
10 13 10 7 0 19 9 27 20 25 34 40 24 40 -25 0 -25 5 -45 10 -45 6 0 10 -7 10
-15 0 -8 7 -15 15 -15 8 0 15 7 15 15 0 8 5 15 10 15 6 0 10 27 10 60 0 33 -4
60 -10 60 -5 0 -10 18 -10 40 l0 40 -40 0 c-22 0 -40 5 -40 10 0 6 -27 10 -60
10 -33 0 -60 -4 -60 -10z"/>
<path d="M1840 6931 c-42 -13 -83 -38 -117 -69 -33 -31 -73 -100 -73 -127 0
-8 -6 -15 -14 -15 -8 0 -17 -4 -21 -9 -7 -12 52 -111 66 -111 5 0 21 25 36 55
22 45 25 58 14 64 -34 21 59 122 130 141 113 31 232 -51 246 -169 19 -162
-140 -268 -294 -196 -47 21 -54 22 -68 9 -19 -20 -19 -29 2 -50 32 -31 101
-55 162 -55 151 -1 271 118 270 266 0 109 -47 189 -139 239 -56 30 -151 43
-200 27z"/>
<path d="M7520 6750 c0 -11 -19 -55 -41 -99 -44 -84 -44 -107 2 -132 18 -9 20
-8 15 9 -5 13 2 33 20 59 l26 38 -4 -40 c-3 -36 -1 -40 20 -38 24 3 28 -7 10
-25 -21 -21 7 -13 30 8 13 12 22 33 22 50 0 40 -19 80 -36 73 -10 -4 -14 3
-14 23 0 26 -32 94 -45 94 -3 0 -5 -9 -5 -20z"/>
<path d="M6977 6702 c-10 -10 -17 -24 -17 -31 0 -7 -5 -9 -12 -5 -6 4 -22 8
-35 10 -19 2 -23 -2 -23 -25 0 -15 5 -32 12 -39 9 -9 7 -12 -9 -12 -30 0 -49
-26 -33 -45 7 -8 22 -15 33 -15 16 0 18 -3 9 -12 -7 -7 -12 -24 -12 -39 0 -23
4 -27 23 -25 13 2 29 6 35 10 7 4 12 2 12 -4 0 -6 8 -22 17 -34 l18 -23 17 23
c10 12 18 27 18 34 0 6 5 8 12 4 6 -4 22 -8 35 -10 19 -2 23 2 23 25 0 15 -5
32 -12 39 -9 9 -7 12 9 12 11 0 26 7 33 15 16 19 -3 45 -33 45 -16 0 -18 3 -9
12 7 7 12 24 12 39 0 22 -4 26 -24 24 -14 -2 -30 -6 -35 -10 -6 -3 -11 0 -11
8 0 8 -8 21 -18 31 -18 15 -20 15 -35 -2z"/>
<path d="M8035 6570 c-4 -6 -21 -17 -40 -24 -63 -27 -71 -92 -15 -121 39 -20
56 -19 80 5 28 28 29 125 1 140 -14 7 -22 7 -26 0z"/>
<path d="M6332 6493 c-47 -36 -58 -60 -36 -84 17 -19 166 -109 181 -109 4 0
22 14 40 32 31 30 34 31 60 18 16 -8 32 -16 37 -19 5 -2 0 7 -13 20 -12 14
-19 30 -15 39 14 35 9 44 -26 44 -31 1 -35 4 -33 27 2 37 -36 54 -84 38 -27
-9 -38 -8 -57 4 -21 14 -25 13 -54 -10z"/>
<path d="M7596 6492 l-68 -25 -70 22 c-50 16 -73 20 -81 12 -10 -10 -1 -16 78
-46 17 -6 12 -10 -27 -24 -56 -19 -67 -28 -44 -37 9 -3 44 4 79 16 l63 22 73
-26 c84 -30 91 -31 91 -12 0 9 -22 22 -55 32 -30 10 -52 21 -48 24 5 4 29 15
56 24 26 10 47 24 47 32 0 18 -11 17 -94 -14z"/>
<path d="M772 6248 c-17 -17 -17 -659 0 -676 8 -8 64 -12 185 -12 l173 0 0
135 0 135 -45 0 -45 0 0 55 0 55 45 0 45 0 0 53 c0 59 23 112 61 140 29 21 95
33 133 23 24 -6 26 -11 26 -56 l0 -49 -47 -3 -48 -3 -3 -52 -3 -53 52 0 52 0
-7 -37 c-3 -21 -6 -46 -6 -55 0 -15 -9 -18 -45 -18 l-45 0 0 -135 0 -135 93 0
c59 0 97 4 105 12 17 17 17 659 0 676 -9 9 -98 12 -338 12 -240 0 -329 -3
-338 -12z"/>
<path d="M9566 6221 c-10 -15 20 -95 56 -152 l34 -54 -30 -25 c-17 -14 -34
-24 -39 -22 -5 1 -6 -2 -2 -8 4 -6 -7 -26 -24 -46 -17 -19 -31 -41 -31 -50 0
-20 29 -30 49 -17 10 6 25 7 41 1 13 -5 51 -9 85 -8 33 0 69 0 80 -2 13 -2 21
4 23 17 2 11 12 29 22 40 53 60 66 159 30 230 -11 21 -18 41 -15 43 5 6 -42
52 -54 52 -4 0 -22 -15 -39 -33 -23 -24 -41 -33 -60 -32 -20 2 -21 1 -4 -2 19
-4 21 -7 11 -19 -7 -8 -9 -29 -6 -51 7 -40 1 -37 -31 18 -12 20 -18 40 -14 44
4 5 2 6 -3 2 -6 -3 -23 14 -39 39 -30 47 -32 49 -40 35z m302 -167 c6 -68 -1
-92 -37 -137 l-29 -37 -50 79 c-28 44 -48 82 -44 85 3 3 16 6 28 6 17 0 35 15
61 50 36 48 37 49 52 28 8 -12 17 -45 19 -74z"/>
<path d="M8545 6176 c-16 -7 -43 -28 -59 -45 -25 -26 -31 -44 -37 -99 -11 -93
-11 -142 0 -142 5 0 13 36 17 81 l7 81 31 -6 c17 -4 33 -11 34 -17 10 -28 57
-69 86 -75 38 -7 86 14 109 47 22 30 29 9 21 -68 -5 -49 -3 -65 4 -58 6 6 14
54 18 107 6 87 5 99 -14 130 -11 18 -35 41 -52 51 -41 25 -126 31 -165 13z"/>
<path d="M9072 6173 c-115 -56 -117 -227 -4 -291 70 -39 154 -24 205 37 49 59
53 128 11 201 -37 63 -140 89 -212 53z"/>
<path d="M10252 6183 c-18 -4 -21 -8 -12 -18 9 -10 6 -15 -9 -20 -12 -3 -21
-11 -21 -16 0 -6 -3 -8 -7 -6 -10 6 -73 -59 -66 -67 4 -3 1 -6 -5 -6 -6 0 -13
-9 -17 -19 -3 -11 -12 -18 -19 -15 -31 12 -36 -106 -6 -136 43 -43 169 -10
237 61 68 72 94 188 53 229 -20 20 -67 24 -128 13z"/>
<path d="M8176 6165 c4 -8 4 -21 1 -29 -5 -12 -12 -11 -44 5 -47 24 -79 24
-128 -1 -49 -25 -48 -25 -42 5 3 20 1 25 -12 23 -9 -2 -15 -12 -14 -23 1 -11
-5 -24 -13 -28 -8 -4 -14 -12 -14 -17 0 -15 28 -12 33 3 2 6 7 9 11 6 4 -3 2
-18 -3 -32 -7 -17 -6 -38 2 -64 10 -33 11 -35 14 -13 8 57 15 70 43 85 17 9
30 11 30 6 0 -6 8 -7 17 -4 13 5 15 2 10 -13 -6 -15 -3 -15 13 5 18 21 20 21
20 5 0 -11 4 -15 8 -9 12 16 32 16 38 0 3 -8 10 -13 14 -10 11 7 22 -42 15
-68 -6 -21 -5 -21 6 -3 7 12 9 39 6 74 l-6 54 22 -21 c22 -20 23 -20 24 -2 1
11 -5 22 -13 25 -9 3 -12 11 -9 16 7 12 -12 40 -26 40 -5 0 -6 -7 -3 -15z"/>
<path d="M6375 6155 c-22 -8 -59 -34 -82 -58 -105 -111 -74 -273 65 -343 43
-22 62 -26 106 -22 109 9 194 92 204 199 6 67 -18 128 -72 177 -65 60 -140 76
-221 47z m152 -44 c46 -21 89 -77 99 -129 4 -17 4 -32 1 -32 -3 0 -31 14 -62
30 -74 39 -147 41 -223 5 -69 -32 -76 -32 -67 3 18 76 100 142 175 142 19 0
54 -9 77 -19z"/>
<path d="M1635 6111 c-80 -36 -135 -123 -135 -211 0 -42 38 -127 71 -157 88
-81 256 -71 319 17 27 38 50 111 50 157 l0 33 -110 0 -110 0 0 -45 0 -45 60 0
c68 0 73 -8 31 -51 -25 -25 -37 -29 -84 -29 -45 0 -61 5 -86 26 -113 95 -3
277 133 220 38 -16 38 -16 67 15 16 17 29 33 29 36 0 2 -24 15 -52 28 -63 30
-127 32 -183 6z"/>
<path d="M2070 5985 c0 -34 -1 -35 -40 -35 -38 0 -40 -2 -40 -30 0 -28 2 -30
40 -30 l40 0 0 -40 c0 -36 3 -40 25 -40 23 0 25 4 25 40 l0 40 40 0 c38 0 40
2 40 30 0 28 -2 30 -40 30 -39 0 -40 1 -40 35 0 31 -3 35 -25 35 -22 0 -25 -4
-25 -35z"/>
<path d="M5675 5736 c-31 -47 -17 -84 52 -138 35 -27 65 -43 68 -38 4 6 31 28
61 51 46 34 54 44 54 72 0 68 -67 104 -107 57 -17 -19 -17 -19 -35 0 -27 28
-74 26 -93 -4z"/>
<path d="M10157 5683 c-2 -5 -23 -81 -47 -171 -28 -107 -40 -166 -33 -173 12
-12 225 -70 232 -63 3 3 27 80 52 172 34 123 43 170 35 179 -11 11 -190 63
-219 63 -9 0 -18 -3 -20 -7z m123 -28 c52 -14 100 -27 106 -29 8 -3 -3 -57
-32 -166 -25 -90 -46 -166 -49 -170 -4 -7 -212 43 -222 54 -4 3 67 281 82 324
6 16 5 16 115 -13z"/>
<path d="M6854 5593 c3 -31 9 -59 14 -62 15 -11 35 -161 22 -176 -7 -9 -8 -15
0 -20 17 -11 28 3 35 46 4 23 12 38 18 36 16 -5 21 -57 8 -70 -15 -15 -14 -27
4 -27 17 0 35 39 35 75 0 14 8 29 19 34 16 9 21 6 31 -19 10 -24 10 -33 0 -45
-10 -13 -9 -15 9 -15 21 0 27 20 22 73 -1 9 2 17 8 17 14 0 41 -53 41 -80 0
-11 5 -20 10 -20 18 0 2 116 -25 183 -9 21 -46 31 -87 23 -43 -8 -58 8 -58 62
l0 45 -23 -21 c-29 -27 -43 -28 -57 -2 -21 38 -32 22 -26 -37z"/>
<path d="M7931 5601 c-27 -38 -26 -43 7 -39 25 3 27 0 33 -42 4 -25 14 -67 23
-95 9 -27 15 -57 14 -65 -2 -8 2 -16 7 -18 6 -1 11 23 13 53 l3 55 34 0 c18 0
40 3 49 6 25 9 53 -58 38 -91 -7 -16 -8 -25 -2 -25 6 0 13 14 17 30 7 39 21
38 26 -2 3 -18 3 -4 2 32 -2 36 0 73 4 83 4 11 7 -5 7 -38 1 -31 7 -62 13 -68
9 -9 11 5 9 63 -3 71 -4 75 -32 89 -34 16 -59 18 -104 7 -29 -7 -35 -4 -64 28
-18 20 -42 43 -54 51 -21 14 -24 13 -43 -14z"/>
<path d="M6385 5556 c-16 -7 -43 -28 -59 -45 -25 -26 -31 -44 -37 -99 -11 -93
-11 -142 0 -142 5 0 13 36 17 81 l7 81 31 -6 c17 -4 33 -11 34 -17 10 -28 57
-69 86 -75 38 -7 86 14 109 47 22 30 29 9 21 -68 -5 -49 -3 -65 4 -58 6 6 14
54 18 107 6 87 5 99 -14 130 -11 18 -35 41 -52 51 -41 25 -126 31 -165 13z"/>
<path d="M5560 5556 c0 -36 81 -105 187 -160 41 -21 52 -20 134 4 63 19 71 19
105 5 20 -8 38 -14 38 -13 1 2 14 20 29 40 l28 38 -28 12 c-15 7 -43 23 -62
35 -40 27 -80 29 -176 7 -123 -27 -130 -29 -130 -44 0 -12 18 -15 95 -13 l95
2 -94 -10 c-80 -8 -97 -7 -110 5 -13 14 -13 17 2 34 17 18 17 20 -5 34 -24 16
-108 34 -108 24z"/>
<path d="M9666 5126 c-79 -30 -130 -103 -162 -233 -9 -37 -23 -78 -31 -91 -14
-23 -14 -23 28 -20 l43 3 12 66 c14 74 50 153 86 187 50 46 116 49 207 10 l45
-19 25 25 25 25 -58 27 c-71 32 -164 41 -220 20z"/>
<path d="M8577 5052 c-33 -51 -35 -57 -18 -60 15 -3 24 -20 37 -78 l18 -76 19
72 c14 49 25 74 38 78 17 7 15 12 -19 64 l-37 56 -38 -56z"/>
<path d="M10197 5052 c-33 -51 -35 -57 -18 -60 15 -3 24 -20 37 -78 l18 -76
19 72 c14 49 25 74 38 78 17 7 15 12 -19 64 l-37 56 -38 -56z"/>
<path d="M9673 5040 c-52 -31 -67 -71 -59 -161 7 -81 6 -81 -39 -114 -18 -13
-16 -14 34 -15 49 0 57 3 87 36 19 19 34 39 34 44 0 12 25 19 39 11 8 -6 9
-15 2 -34 l-11 -27 65 0 65 0 0 65 0 65 -45 0 c-35 0 -45 4 -45 16 0 14 8 16
50 10 28 -4 50 -4 50 0 0 3 -10 24 -22 45 -39 71 -139 99 -205 59z"/>
<path d="M2300 4701 c0 -6 19 -15 43 -21 23 -6 52 -15 65 -20 13 -6 30 -10 38
-10 9 0 27 -9 41 -20 l26 -20 -101 0 c-90 0 -102 -2 -112 -19 -15 -29 -13 -36
24 -75 l33 -36 198 0 197 0 28 30 c25 27 44 92 33 113 -6 11 -81 9 -88 -3 -3
-5 -21 -10 -38 -9 -30 0 -30 1 -9 10 35 14 26 53 -13 57 -16 2 -34 8 -40 13
-11 11 -52 12 -59 0 -16 -25 -144 -17 -248 15 -10 3 -18 1 -18 -5z"/>
<path d="M1085 4690 l-150 -6 155 -3 c135 -3 149 -5 110 -14 -25 -6 -47 -14
-50 -18 -3 -4 -55 -13 -115 -19 l-110 -11 -25 31 c-35 42 -42 38 -20 -12 11
-24 20 -54 21 -68 l1 -25 9 27 c9 24 16 27 86 33 l75 8 33 -36 c17 -19 43 -38
56 -42 13 -4 32 -14 42 -23 9 -8 17 -11 17 -6 0 5 20 8 44 8 61 -3 126 28 126
59 0 32 -39 66 -83 74 -20 3 -38 12 -41 19 -4 12 21 14 142 15 81 1 138 3 127
5 -42 7 -306 9 -450 4z"/>
<path d="M8462 4548 c-20 -20 -14 -35 23 -63 34 -26 37 -32 49 -87 5 -23 2
-27 -24 -33 -33 -7 -37 -20 -15 -49 15 -19 16 -19 19 5 0 7 12 16 24 20 23 9
24 8 17 -31 -5 -32 -4 -40 8 -40 9 0 22 -3 31 -6 9 -3 16 -1 16 5 0 6 -7 11
-16 11 -12 0 -14 5 -8 18 4 9 8 36 9 60 0 46 9 55 19 20 9 -37 7 -66 -6 -71
-7 -2 -9 -8 -5 -13 16 -17 42 14 48 55 9 64 22 68 47 14 12 -27 22 -57 24 -67
2 -11 8 -21 14 -23 9 -3 8 18 -3 73 -15 82 -12 107 11 98 28 -11 37 5 20 38
-16 30 -17 30 -72 24 -32 -3 -78 -17 -105 -30 -40 -20 -49 -21 -59 -9 -6 8
-24 21 -40 29 -15 8 -28 21 -28 30 0 21 27 29 48 13 15 -13 16 -12 3 4 -16 20
-32 22 -49 5z"/>
<path d="M2318 4180 c-22 -24 -38 -51 -38 -65 0 -37 110 -165 142 -165 5 0 31
21 58 48 50 48 55 62 52 140 -1 17 -11 41 -22 52 -22 22 -70 27 -70 8 0 -6 -7
-4 -18 5 -30 28 -62 20 -104 -23z"/>
<path d="M134 4176 c-39 -19 -75 -39 -79 -45 -8 -13 64 -178 80 -184 18 -7 55
12 55 27 0 9 18 54 40 101 33 73 38 90 28 110 -15 33 -37 31 -124 -9z"/>
<path d="M2958 4194 c-26 -14 -28 -19 -28 -84 0 -39 -3 -70 -6 -70 -3 0 -15 5
-26 11 -16 9 -29 7 -60 -7 -38 -17 -39 -19 -36 -61 3 -43 3 -44 71 -75 65 -30
69 -31 100 -16 29 14 35 14 65 0 29 -14 35 -14 67 1 32 15 35 20 35 62 0 39
-3 46 -30 60 -29 15 -30 18 -30 83 0 75 -3 82 -43 100 -35 15 -45 15 -79 -4z"/>
<path d="M4505 4195 c-22 -8 -41 -15 -42 -15 -2 0 -3 -13 -3 -28 0 -16 -7 -37
-15 -48 -19 -25 -19 -58 1 -75 21 -17 73 -15 112 5 27 14 31 14 36 0 9 -22 39
-13 46 14 7 33 24 28 30 -8 7 -46 25 -41 28 8 5 72 27 45 30 -36 3 -71 2 -72
-25 -83 -37 -14 -165 -14 -192 0 -14 8 -21 21 -21 41 0 20 -5 30 -15 30 -24 0
-19 -63 6 -86 23 -21 139 -32 205 -20 65 13 74 32 74 154 0 72 -4 114 -13 126
-26 35 -168 47 -242 21z"/>
<path d="M5584 4170 c3 -19 8 -55 12 -80 l7 -45 -28 25 -27 25 16 -39 c19 -47
21 -65 4 -48 -26 26 -26 10 0 -33 32 -54 57 -61 46 -13 -6 29 -5 31 10 19 14
-12 16 -10 16 20 l1 34 14 -25 c8 -14 14 -19 15 -12 0 7 4 11 9 8 5 -4 12 0
14 6 3 7 6 2 6 -11 1 -24 1 -24 23 -5 l21 19 -6 -33 c-4 -21 -3 -31 3 -27 6 3
10 1 10 -4 0 -6 8 -11 17 -11 9 0 13 3 10 7 -4 3 1 15 10 26 17 19 17 19 -4
13 -13 -4 -23 -6 -23 -4 0 3 11 33 25 68 14 35 23 65 21 67 -2 2 -18 -13 -35
-34 -29 -35 -31 -36 -31 -13 0 23 0 23 -15 4 -13 -17 -15 -13 -16 51 l-2 70
-12 -60 c-10 -48 -14 -56 -21 -40 -8 19 -8 19 -14 -3 -4 -20 -10 -14 -43 45
-34 60 -38 64 -33 33z"/>
<path d="M1204 4155 c-3 -19 -3 -42 0 -51 4 -10 2 -32 -5 -51 -8 -25 -16 -33
-35 -33 -13 0 -24 -4 -24 -10 0 -5 14 -10 30 -10 36 0 40 -17 5 -26 -35 -9
-32 -27 4 -19 20 4 39 -1 67 -17 30 -18 54 -23 104 -23 50 0 74 5 104 23 28
16 47 21 67 17 36 -8 39 10 4 19 -35 9 -31 26 5 26 17 0 30 5 30 10 0 6 -11
10 -24 10 -30 0 -39 23 -40 102 -1 31 -4 60 -9 64 -10 10 -76 -22 -83 -41 -7
-17 -104 -22 -104 -5 0 12 -59 50 -77 50 -7 0 -15 -16 -19 -35z"/>
<path d="M292 4151 c-13 -8 -82 -155 -82 -175 0 -15 146 -86 175 -86 15 0 29
20 58 83 20 45 37 88 37 94 0 7 -15 19 -32 27 -18 8 -58 25 -89 39 -31 14 -61
22 -67 18z"/>
<path d="M10193 4073 c-8 -14 -14 -15 -23 -6 -16 15 -40 6 -33 -13 3 -8 -1
-15 -8 -15 -8 -1 -21 -2 -29 -3 -8 0 -15 -10 -15 -21 0 -13 -7 -20 -20 -20
-15 0 -20 -7 -20 -27 0 -15 -4 -27 -9 -27 -17 1 -24 -24 -13 -44 9 -15 9 -21
0 -24 -18 -7 -16 -24 4 -38 13 -10 15 -16 6 -27 -14 -16 -6 -32 21 -41 15 -6
16 -10 6 -22 -13 -15 -14 -14 35 -30 8 -2 14 -10 13 -17 -2 -7 6 -14 17 -14
11 -1 26 -2 33 -3 7 -1 11 -5 8 -10 -9 -14 17 -19 38 -7 14 8 20 8 23 -1 6
-17 21 -16 40 2 10 11 19 13 27 6 12 -10 38 0 37 15 0 5 9 9 21 9 15 0 24 8
28 25 3 14 12 25 20 25 8 0 16 9 16 20 1 11 2 26 3 33 1 7 5 11 10 8 14 -9 19
17 7 38 -8 14 -8 20 2 23 17 7 15 24 -5 39 -14 10 -15 15 -6 25 13 13 6 42 -9
33 -15 -10 -29 18 -16 33 11 14 -8 26 -33 21 -8 -2 -14 4 -14 12 -1 29 -15 42
-31 29 -11 -9 -18 -9 -26 -1 -7 7 -8 12 -2 12 5 0 3 4 -5 9 -9 6 -22 5 -34 -2
-15 -9 -21 -9 -24 1 -7 17 -26 15 -40 -5z m116 -90 c71 -52 79 -150 17 -212
-34 -33 -41 -36 -96 -36 -56 0 -62 3 -97 38 -35 34 -38 42 -38 91 0 63 22 101
76 129 41 22 100 17 138 -10z"/>
<path d="M10172 3967 c-35 -20 -55 -56 -55 -99 0 -51 28 -89 79 -107 34 -12
44 -11 76 2 117 49 83 218 -44 217 -18 -1 -43 -6 -56 -13z"/>
<path d="M9615 4058 c4 -13 13 -43 20 -68 12 -44 13 -45 59 -48 45 -3 46 -3
46 28 0 17 7 47 15 67 8 19 15 37 15 39 0 2 -37 4 -81 4 -80 0 -81 0 -74 -22z"/>
<path d="M7535 4036 c-25 -7 -40 -17 -41 -27 -1 -11 5 -15 17 -12 11 3 22 9
25 14 8 14 61 11 67 -4 5 -12 -63 -77 -80 -77 -5 0 -26 -21 -48 -47 -22 -27
-44 -50 -49 -52 -5 -2 -21 -15 -34 -28 -13 -13 -34 -31 -48 -39 -18 -12 -24
-25 -24 -50 0 -41 14 -44 28 -6 9 26 50 62 135 117 36 24 39 24 63 8 l25 -16
-31 -14 c-18 -7 -39 -13 -46 -13 -17 0 -18 -11 -2 -45 14 -32 30 -33 22 -1 -5
22 -2 25 33 32 79 14 90 33 47 84 -15 17 -25 32 -23 33 2 2 21 10 42 20 l38
17 24 -27 23 -28 13 30 c7 17 19 38 27 47 8 9 11 22 6 29 -4 8 -13 -1 -26 -25
-10 -20 -23 -34 -28 -31 -15 9 -12 24 10 47 14 16 17 25 9 39 -12 23 -32 24
-49 4 -11 -13 -15 -12 -36 10 -25 27 -30 28 -89 11z"/>
<path d="M9075 3999 c-19 -17 -51 -59 -70 -94 -35 -62 -44 -110 -25 -144 16
-31 83 -51 170 -51 175 0 222 65 145 196 -76 127 -147 157 -220 93z m125 6
c33 -17 108 -127 116 -171 9 -46 3 -64 -29 -88 -25 -18 -42 -21 -137 -21 -95
0 -112 3 -137 21 -49 37 -43 91 18 184 58 86 106 108 169 75z"/>
<path d="M9589 3919 c-18 -18 -21 -30 -16 -73 3 -29 16 -83 29 -121 l24 -70
60 -3 61 -3 17 38 c21 48 46 140 46 174 0 30 -35 79 -56 79 -8 0 -12 -4 -9
-10 3 -5 0 -8 -7 -6 -7 3 -39 7 -70 10 -50 5 -61 3 -79 -15z"/>
<path d="M3953 3723 c-7 -15 -13 -43 -13 -63 0 -29 -5 -39 -24 -48 -22 -10
-24 -15 -19 -54 3 -24 9 -48 14 -53 13 -18 39 -144 32 -162 -3 -10 -15 -30
-25 -45 -24 -35 -23 -38 15 -38 24 0 39 8 59 32 l27 33 7 -32 c5 -26 12 -33
29 -33 25 0 35 22 35 83 0 36 1 37 38 37 20 0 46 7 56 15 16 12 18 19 8 39 -6
13 -23 31 -39 38 -28 14 -29 19 -17 69 5 24 2 28 -26 34 -54 12 -120 45 -120
60 0 8 4 15 8 15 13 0 33 66 26 84 -10 27 -57 20 -71 -11z"/>
<path d="M751 3653 c-17 -21 -27 -40 -23 -44 12 -11 204 -80 209 -75 3 2 7 22
10 45 5 34 2 43 -20 64 -27 24 -87 47 -125 47 -12 0 -34 -16 -51 -37z"/>
<path d="M5592 3660 c-48 -29 -64 -75 -56 -158 8 -76 16 -92 50 -92 13 0 24
-4 24 -9 0 -13 38 -24 77 -23 22 1 33 -4 36 -16 3 -13 4 -13 4 3 1 42 4 45 33
45 39 0 50 23 50 109 0 69 -14 121 -33 121 -5 0 -2 -11 7 -25 17 -25 16 -25
-4 -13 -16 10 -24 10 -40 0 -16 -10 -20 -10 -20 2 0 9 -9 12 -27 9 -24 -4 -25
-3 -10 7 9 6 17 16 17 22 0 16 -32 37 -55 38 -11 0 -35 -9 -53 -20z"/>
<path d="M3400 3649 c0 -13 8 -23 21 -26 12 -4 18 -11 15 -20 -3 -8 -6 -19 -6
-24 0 -5 -12 -9 -26 -9 -15 0 -23 -4 -19 -11 4 -6 21 -9 39 -8 47 4 59 -7 40
-36 -17 -26 -11 -47 25 -79 26 -24 26 -33 0 -41 -11 -4 -19 -9 -16 -11 2 -2
30 7 63 21 32 13 50 24 38 25 -11 0 -32 13 -47 28 l-27 28 25 24 c14 13 23 30
21 36 -3 9 8 14 32 17 33 3 32 4 -10 5 -40 2 -51 7 -70 32 -12 17 -27 30 -34
30 -6 0 -14 9 -17 20 -7 28 -47 27 -47 -1z"/>
<path d="M633 3584 c-19 -8 -16 -19 13 -54 27 -31 27 -31 5 -37 -38 -10 -17
-33 30 -33 11 0 17 -4 14 -10 -11 -17 21 -11 48 10 31 25 58 25 87 2 40 -33
18 -42 -81 -35 -99 7 -102 4 -78 -66 18 -52 102 -56 115 -6 8 34 25 31 46 -6
16 -26 22 -30 55 -27 34 3 40 8 60 51 13 26 30 47 38 47 22 0 19 11 -13 49
-44 53 -291 136 -339 115z"/>
<path d="M8578 3479 c-10 -5 -18 -17 -18 -24 0 -8 -7 -15 -16 -15 -9 0 -31
-15 -50 -34 -38 -38 -44 -77 -17 -115 9 -13 19 -38 22 -55 4 -18 14 -32 26
-36 11 -3 32 -13 46 -23 30 -20 74 -15 83 9 3 8 14 14 24 14 23 0 46 24 40 42
-3 7 3 29 13 48 11 23 16 56 15 95 l-1 60 -44 3 c-25 2 -56 12 -69 23 -28 22
-31 22 -54 8z m-13 -71 c8 -19 17 -22 49 -20 28 2 44 -2 61 -18 13 -12 28 -18
38 -14 13 5 17 0 17 -23 0 -16 -7 -39 -16 -51 -9 -13 -13 -29 -11 -36 7 -17
-12 -36 -35 -36 -10 0 -21 -7 -24 -15 -8 -19 -58 -20 -74 -1 -6 8 -21 16 -33
18 -14 2 -23 11 -25 27 -2 13 -12 37 -23 55 -27 44 -24 63 15 102 40 40 48 42
61 12z"/>
<path d="M245 3132 c-87 -7 -126 -80 -87 -159 11 -21 22 -50 25 -64 4 -14 18
-31 31 -38 21 -12 23 -16 13 -32 -7 -11 -17 -19 -24 -19 -6 0 -14 -4 -17 -9
-3 -4 12 -8 34 -8 22 0 37 3 35 8 -10 15 13 19 42 8 15 -7 39 -12 53 -13 22
-1 26 5 36 47 13 53 8 166 -7 208 -6 15 -20 31 -32 38 -12 6 -31 17 -42 24
-11 7 -38 11 -60 9z"/>
<path d="M2912 3125 c-37 -16 -65 -69 -61 -119 1 -17 -2 -39 -6 -49 -4 -10 -3
-29 4 -43 17 -38 13 -63 -13 -89 l-25 -25 26 -6 c14 -4 41 -2 58 5 25 9 39 9
59 0 19 -9 32 -9 51 -1 17 8 33 8 55 1 17 -6 42 -8 56 -5 l27 7 -21 22 c-27
30 -31 56 -15 90 8 16 11 36 7 45 -4 10 -8 38 -9 64 -4 94 -98 144 -193 103z
m83 -79 c26 -11 32 -10 42 3 11 15 13 14 29 -1 11 -10 18 -33 18 -53 0 -19 4
-35 8 -35 25 0 -4 -61 -56 -117 -42 -46 -74 -44 -119 6 -51 57 -70 89 -63 107
3 8 10 12 16 9 5 -3 10 1 10 11 0 9 9 32 21 50 23 37 44 42 94 20z"/>
<path d="M4146 3098 c-3 -24 -7 -56 -8 -72 -3 -27 -9 -31 -72 -53 -38 -12 -78
-31 -89 -40 -19 -18 -19 -18 4 -23 13 -3 29 -17 36 -30 11 -22 9 -26 -17 -43
-24 -15 -33 -16 -52 -6 -21 11 -22 11 -9 -4 14 -18 46 -23 55 -8 3 4 17 6 32
3 20 -4 34 4 65 34 57 55 76 91 83 156 8 59 0 128 -15 128 -4 0 -10 -19 -13
-42z"/>
<path d="M1825 3116 c-101 -44 -125 -178 -46 -257 112 -113 296 -12 267 146
-18 94 -131 151 -221 111z m144 -33 c85 -63 75 -186 -20 -236 -92 -49 -208 33
-195 137 12 104 133 159 215 99z"/>
<path d="M6163 3108 c-12 -13 -24 -41 -28 -63 -7 -41 -22 -71 -49 -98 -14 -14
-14 -16 0 -21 9 -4 14 -13 10 -21 -3 -8 0 -15 6 -15 7 0 3 -7 -8 -15 -17 -13
-17 -14 -1 -15 9 0 17 -4 17 -10 0 -10 40 -54 44 -48 1 2 14 21 28 43 24 36
26 44 17 85 -25 111 -26 130 -12 150 17 25 49 26 62 2 5 -10 7 -33 5 -52 -12
-102 -11 -125 4 -143 13 -15 14 -22 4 -38 -7 -10 -9 -19 -5 -20 5 0 16 -2 25
-4 10 -2 17 0 16 3 -3 14 14 42 22 37 13 -8 33 64 23 78 -5 7 -9 19 -8 27 0 8
-6 21 -15 28 -13 12 -13 13 0 7 12 -5 12 -4 -1 7 -16 13 -31 44 -33 65 -2 18
-52 53 -78 53 -14 0 -34 -10 -45 -22z"/>
<path d="M5537 3102 c-25 -28 -21 -67 9 -91 15 -12 22 -21 15 -21 -6 0 -20 -9
-31 -20 -16 -16 -20 -33 -20 -95 l0 -75 75 0 75 0 0 75 c0 62 -4 79 -20 95
-11 11 -28 20 -37 20 -13 0 -11 4 7 13 61 31 43 117 -24 117 -19 0 -40 -8 -49
-18z"/>
<path d="M5717 3102 c-25 -28 -21 -67 9 -91 15 -12 22 -21 15 -21 -6 0 -20 -9
-31 -20 -16 -16 -20 -33 -20 -95 l0 -75 75 0 75 0 0 75 c0 62 -4 79 -20 95
-11 11 -28 20 -37 20 -13 0 -11 4 7 13 61 31 43 117 -24 117 -19 0 -40 -8 -49
-18z"/>
<path d="M5053 3094 c-2 -7 -2 -17 1 -23 4 -5 -3 -12 -13 -16 -11 -3 -32 -20
-47 -38 -22 -26 -25 -38 -21 -75 7 -65 43 -97 108 -97 45 0 54 4 80 33 31 34
39 85 18 123 -16 31 -26 13 -21 -39 4 -44 2 -51 -23 -70 -57 -45 -135 -10
-135 61 0 35 33 77 61 77 21 1 44 22 47 46 2 16 -4 23 -23 27 -17 3 -28 0 -32
-9z"/>
<path d="M5121 3046 c-31 -17 -50 -53 -51 -93 0 -40 9 -63 25 -63 8 0 11 14 7
49 -6 62 18 91 77 91 73 0 108 -84 56 -135 -13 -14 -33 -25 -43 -25 -11 0 -25
-7 -32 -15 -11 -13 -8 -15 14 -15 63 0 116 55 116 121 0 47 -56 99 -106 99
-22 -1 -50 -7 -63 -14z"/>
<path d="M9496 2974 c-8 -22 9 -50 44 -71 37 -21 39 -32 5 -25 -27 5 -65 -21
-65 -43 0 -14 31 -25 73 -25 18 0 27 -5 27 -16 0 -8 5 -25 12 -37 24 -42 35
-85 30 -116 -3 -24 1 -36 19 -51 50 -41 133 -10 128 47 -3 36 10 93 27 118 8
11 14 27 14 37 0 13 8 18 28 18 42 0 72 11 72 25 0 25 -32 47 -62 43 -36 -6
-36 3 2 25 35 21 54 52 45 75 -5 13 -8 13 -20 -5 -23 -32 -68 -45 -95 -26 -30
21 -139 21 -171 0 -21 -14 -28 -14 -56 -2 -18 8 -33 21 -33 30 0 20 -16 20
-24 -1z m267 -32 c16 -2 16 -4 2 -32 -8 -16 -15 -38 -15 -50 0 -11 -6 -23 -14
-26 -8 -3 -14 -21 -14 -45 -1 -21 -4 -43 -7 -49 -10 -17 -25 -11 -25 9 0 11
-5 23 -11 27 -6 3 -8 16 -5 29 4 15 -2 32 -15 49 -12 15 -19 30 -15 33 3 4 -1
15 -10 25 -16 16 -15 18 7 27 21 8 53 9 122 3z"/>
<path d="M9133 2934 c-8 -4 -9 -13 -4 -27 7 -16 4 -29 -10 -46 -10 -13 -19
-30 -19 -39 0 -12 -3 -13 -12 -4 -18 18 -36 15 -43 -8 -5 -15 -12 -19 -25 -15
-13 4 -20 -1 -26 -17 -3 -12 -13 -28 -20 -36 -16 -16 -18 -41 -4 -62 7 -12 10
-8 10 15 1 27 2 28 10 9 5 -12 14 -25 21 -30 9 -5 10 3 6 34 -4 24 -3 43 3 47
5 3 10 -1 10 -10 0 -9 7 -29 15 -46 12 -23 13 -30 3 -33 -117 -33 -122 -31
106 -31 128 0 206 3 191 8 -20 7 -23 12 -15 27 16 29 12 56 -12 94 -15 23 -29
33 -39 30 -11 -3 -18 3 -22 16 -4 16 -11 19 -29 15 -18 -4 -27 1 -42 27 -11
18 -20 44 -20 57 -1 25 -12 33 -33 25z"/>
<path d="M687 2662 c-15 -16 -17 -48 -17 -235 0 -183 2 -218 16 -231 12 -13
38 -16 120 -16 58 0 114 5 125 10 18 10 19 23 19 235 0 190 -2 226 -16 239
-12 13 -39 16 -123 16 -92 0 -110 -3 -124 -18z m233 -217 l0 -175 -110 0 -110
0 0 175 0 175 110 0 110 0 0 -175z"/>
<path d="M7820 2670 c-8 -4 -36 -17 -63 -29 -73 -32 -88 -65 -83 -181 3 -85 8
-103 37 -158 24 -47 44 -69 78 -91 39 -23 49 -26 59 -15 8 8 8 14 2 14 -19 0
-10 31 17 54 l26 23 -26 7 c-28 7 -36 31 -14 39 10 4 10 6 0 6 -10 1 -13 31
-13 117 l0 116 28 -7 c45 -11 69 -32 76 -66 12 -59 8 -70 -18 -63 -27 6 -66
-10 -66 -29 0 -7 4 -6 10 3 6 10 10 11 10 3 0 -16 42 -17 58 -1 15 15 18 11
25 -30 4 -21 3 -31 -3 -27 -6 3 -10 -2 -10 -12 0 -10 -9 -36 -19 -57 -25 -47
-35 -92 -23 -100 5 -3 9 8 9 24 0 30 25 90 53 123 17 22 17 180 -1 234 -12 37
-59 80 -97 90 -15 3 -29 9 -32 13 -3 4 -12 4 -20 0z m10 -220 c0 -98 -2 -110
-17 -111 -17 -1 -17 -2 0 -6 10 -3 17 -14 17 -29 0 -21 -3 -24 -21 -19 -15 5
-19 4 -15 -4 4 -6 14 -11 22 -11 9 0 14 -11 14 -30 0 -19 -5 -30 -14 -30 -24
0 -73 47 -86 82 -6 18 -16 41 -21 50 -5 10 -9 26 -9 37 0 11 -6 22 -12 25 -10
5 -10 7 0 12 6 3 12 16 12 29 0 35 18 77 30 70 13 -8 80 22 80 35 0 6 5 10 10
10 6 0 10 -43 10 -110z"/>
<path d="M1242 2644 c-22 -15 -31 -64 -12 -64 6 0 10 -7 10 -15 0 -12 -13 -15
-60 -15 l-60 0 0 -61 c0 -65 1 -65 51 -45 10 4 23 0 33 -9 35 -36 6 -102 -35
-77 -10 7 -26 12 -35 12 -15 0 -16 -9 -10 -72 4 -40 11 -77 16 -81 4 -5 27
-11 50 -14 45 -6 68 10 49 34 -26 31 18 72 62 58 18 -6 20 -12 15 -45 -7 -44
6 -54 63 -45 86 14 83 11 81 63 -1 26 -1 53 -1 60 1 15 33 16 48 1 6 -6 21 -9
34 -7 46 6 52 95 8 119 -17 9 -27 7 -49 -10 -40 -29 -55 -9 -46 65 l6 55 -69
-2 c-39 -2 -73 0 -77 3 -3 4 1 17 10 30 20 28 20 42 0 62 -20 20 -53 20 -82 0z"/>
<path d="M5522 2628 c-8 -8 -12 -68 -12 -203 0 -135 4 -195 12 -203 17 -17
279 -17 296 0 9 9 12 68 12 205 0 180 -1 193 -19 203 -28 15 -274 13 -289 -2z
m142 -73 c-4 -8 1 -18 10 -21 20 -8 21 -24 1 -24 -8 0 -15 -6 -15 -13 0 -7 12
-13 28 -12 21 0 28 -5 30 -23 4 -29 -14 -52 -42 -52 -20 0 -20 -1 4 -20 14
-10 44 -26 68 -35 45 -18 52 -29 26 -39 -17 -7 -52 11 -91 47 l-23 20 0 -53
c0 -42 -3 -51 -12 -42 -7 7 -11 31 -9 53 l3 41 -35 -26 c-44 -34 -58 -34 -18
0 17 14 31 32 31 39 0 7 6 16 13 18 9 4 8 8 -3 16 -10 7 -11 11 -2 11 6 0 12
4 12 10 0 5 -8 7 -17 4 -17 -5 -17 -5 0 9 9 8 17 19 17 26 0 6 -8 11 -17 11
-17 1 -17 1 0 14 9 7 17 22 17 33 0 11 3 23 6 26 11 11 24 -3 18 -18z"/>
<path d="M6716 2552 c-3 -5 -16 -9 -28 -8 -13 1 -26 -3 -30 -9 -5 -6 -11 -5
-18 5 -8 13 -10 13 -10 -1 0 -10 -11 -19 -28 -22 -37 -7 -89 -81 -84 -120 2
-19 12 -31 28 -38 14 -5 22 -13 19 -19 -3 -5 -2 -10 3 -10 13 0 42 34 42 51 1
15 28 56 32 48 2 -2 10 -17 18 -34 9 -16 26 -35 39 -41 46 -24 110 20 98 67
-6 22 6 24 52 8 39 -14 39 -22 -1 -50 -18 -13 -35 -27 -36 -31 -2 -5 -8 -6
-13 -2 -5 3 -9 1 -9 -3 0 -5 -8 -9 -17 -10 -10 0 -55 -3 -101 -6 -78 -5 -102
-11 -91 -21 11 -12 128 -11 161 0 20 7 39 10 42 7 3 -4 6 -1 6 5 0 6 6 9 14 6
8 -3 16 4 19 17 5 18 9 20 20 11 11 -10 20 -9 39 1 31 16 58 42 58 56 0 6 6
11 13 11 7 0 18 9 24 20 11 16 10 18 -1 14 -16 -6 -33 15 -20 25 13 9 17 34 4
26 -5 -3 -10 0 -10 7 0 7 -7 2 -16 -10 -8 -12 -21 -22 -27 -21 -9 0 -9 2 1 6
6 2 12 11 12 19 0 9 -4 12 -10 9 -5 -3 -10 -2 -10 4 0 5 -12 8 -26 6 -18 -2
-24 1 -20 12 4 9 2 11 -7 6 -21 -13 -37 -12 -37 4 0 11 -4 13 -12 6 -15 -11
-28 -11 -45 0 -8 5 -13 3 -13 -5 0 -10 -2 -10 -9 1 -5 8 -11 9 -15 3z"/>
<path d="M2340 2497 c-31 -20 -70 -75 -70 -99 0 -21 97 -58 151 -58 34 0 58 9
103 36 37 24 54 39 46 44 -9 6 -9 9 0 12 21 7 -16 55 -53 69 -51 20 -143 18
-177 -4z"/>
<path d="M3405 2445 c-47 -46 -34 -76 68 -157 31 -25 36 -26 48 -12 7 9 32 29
56 45 24 17 46 41 49 55 9 34 -10 72 -41 86 -21 10 -30 8 -53 -9 -27 -20 -28
-20 -51 -2 -31 25 -47 24 -76 -6z"/>
<path d="M4485 2445 c-47 -46 -34 -76 68 -157 31 -25 36 -26 48 -12 7 9 32 29
56 45 24 17 46 41 49 55 9 34 -10 72 -41 86 -21 10 -30 8 -53 -9 -27 -20 -28
-20 -51 -2 -31 25 -47 24 -76 -6z"/>
<path d="M4752 2108 c14 -10 1 -27 -105 -140 -67 -70 -128 -128 -136 -128 -22
0 25 -46 71 -69 21 -10 48 -17 58 -14 19 5 55 41 93 93 19 26 5 -1 -60 -115
-19 -33 -39 -66 -45 -73 -13 -15 -4 -27 11 -17 6 3 21 25 32 48 12 22 37 64
55 92 18 27 38 73 43 102 6 28 19 66 31 85 11 18 20 41 20 51 0 25 -36 75 -63
87 -18 9 -19 8 -5 -2z"/>
<path d="M7833 2092 l-133 -3 0 -194 0 -195 130 0 130 0 3 198 3 197 -1 -200
0 -200 -135 0 -135 0 -5 190 -6 190 -2 -187 c-2 -230 -11 -218 153 -218 163 0
155 -12 155 219 0 140 -3 191 -12 197 -7 5 -73 8 -145 6z m76 -88 c12 -15 21
-39 21 -54 0 -15 -9 -39 -21 -54 -17 -22 -28 -26 -70 -26 l-49 0 0 -55 c0 -48
-2 -55 -20 -55 -19 0 -20 7 -20 135 l0 135 69 0 c63 0 71 -2 90 -26z"/>
<path d="M2960 2031 c0 -54 -2 -60 -22 -63 -25 -3 -37 -36 -18 -48 9 -6 70
-142 70 -157 0 -1 -10 -3 -22 -5 -42 -6 -33 -67 9 -68 7 0 19 10 28 23 14 22
13 28 -9 83 -13 32 -23 60 -21 62 8 8 46 -21 59 -46 l15 -27 1 27 c0 27 -41
71 -80 83 -24 8 -26 21 -4 29 13 5 16 17 12 61 -5 54 -5 55 21 49 32 -8 51
-30 51 -61 0 -18 -6 -23 -26 -23 -21 0 -25 -4 -22 -22 4 -27 39 -36 57 -15 9
11 9 31 0 85 -11 64 -14 71 -38 77 -14 3 -34 8 -43 11 -16 5 -18 -2 -18 -55z"/>
<path d="M1303 2042 c24 -25 27 -36 27 -95 0 -38 -4 -67 -10 -67 -6 0 -10 -38
-10 -95 l0 -95 45 0 c43 0 45 1 45 29 0 15 3 56 6 90 6 56 5 63 -12 67 -16 4
-19 14 -18 70 2 53 6 70 25 90 12 13 20 26 17 29 -3 3 -11 -1 -18 -10 -16 -19
-74 -19 -90 0 -7 8 -17 15 -23 15 -6 0 1 -13 16 -28z"/>
<path d="M190 2033 l0 -23 -37 20 c-50 26 -55 25 -51 -11 2 -25 11 -34 46 -49
l42 -19 0 24 0 25 45 -22 c38 -18 45 -27 45 -51 0 -27 2 -28 38 -25 33 3 37 6
40 33 3 26 9 33 45 45 37 13 42 19 45 49 3 29 1 33 -15 26 -10 -4 -30 -12 -45
-17 -22 -8 -28 -17 -28 -38 0 -20 -6 -29 -22 -34 -46 -12 -58 -7 -58 22 0 22
-8 31 -45 48 l-45 21 0 -24z"/>
<path d="M2846 2028 c-9 -12 -16 -36 -16 -52 0 -16 -9 -39 -20 -51 -11 -11
-22 -34 -26 -51 -7 -38 27 -84 62 -84 20 0 24 -5 23 -27 -1 -17 -3 -21 -6 -10
-5 18 -38 23 -48 7 -9 -15 14 -50 33 -50 27 0 42 20 42 56 0 17 7 37 15 44 18
15 20 71 3 88 -7 7 -20 12 -30 12 -22 0 -23 23 -2 55 17 26 16 76 -3 82 -6 2
-18 -6 -27 -19z"/>
<path d="M5692 2043 c-18 -4 -21 -8 -12 -18 9 -10 6 -15 -9 -20 -12 -3 -21
-11 -21 -16 0 -6 -3 -8 -7 -6 -10 6 -73 -59 -66 -67 4 -3 1 -6 -5 -6 -6 0 -13
-9 -17 -19 -3 -11 -12 -18 -19 -15 -31 12 -36 -106 -6 -136 43 -43 169 -10
237 61 68 72 94 188 53 229 -20 20 -67 24 -128 13z"/>
<path d="M2297 2022 c-25 -28 -21 -67 9 -91 15 -12 22 -21 15 -21 -6 0 -20 -9
-31 -20 -16 -16 -20 -33 -20 -95 l0 -75 75 0 75 0 0 75 c0 62 -4 79 -20 95
-11 11 -28 20 -37 20 -13 0 -11 4 7 13 61 31 43 117 -24 117 -19 0 -40 -8 -49
-18z"/>
<path d="M2477 2022 c-25 -28 -21 -67 9 -91 15 -12 22 -21 15 -21 -6 0 -20 -9
-31 -20 -16 -16 -20 -33 -20 -95 l0 -75 75 0 75 0 0 75 c0 62 -4 79 -20 95
-11 11 -28 20 -37 20 -13 0 -11 4 7 13 61 31 43 117 -24 117 -19 0 -40 -8 -49
-18z"/>
<path d="M6672 2020 c-47 -29 -72 -76 -72 -135 0 -93 62 -155 155 -155 93 0
155 62 155 155 0 93 -62 155 -155 155 -32 0 -62 -7 -83 -20z m187 -114 c17 -9
29 -21 26 -27 -14 -21 -87 -49 -130 -49 -43 0 -116 28 -130 49 -6 10 21 28 64
42 38 12 133 4 170 -15z"/>
<path d="M1245 1970 c4 -13 2 -20 -5 -18 -21 5 -35 -28 -23 -54 18 -37 22 -88
6 -88 -9 0 -13 -17 -13 -60 l0 -60 45 0 45 0 0 55 c0 36 -5 57 -13 61 -13 5
-12 69 3 89 10 15 -5 60 -19 57 -8 -2 -10 4 -6 18 5 14 2 20 -10 20 -12 0 -15
-6 -10 -20z"/>
<path d="M190 1913 c0 -23 -14 -31 -24 -14 -3 5 -19 14 -36 19 -29 11 -30 10
-30 -23 0 -29 4 -34 30 -40 16 -4 32 -11 35 -16 11 -17 25 -9 25 16 l0 25 45
-22 c37 -18 45 -27 45 -50 0 -26 3 -28 40 -28 38 0 40 -2 40 -30 0 -28 -2 -30
-40 -30 -37 0 -40 2 -40 28 0 22 -8 31 -45 48 l-45 21 0 -24 c0 -27 -6 -28
-40 -8 -38 21 -50 18 -50 -13 0 -23 7 -31 38 -42 20 -8 40 -16 45 -18 4 -2 7
7 7 21 l0 24 47 -23 c56 -29 92 -30 158 -5 44 17 50 23 53 51 3 28 1 32 -15
26 -10 -4 -30 -10 -45 -13 -25 -5 -28 -3 -28 21 0 24 -3 26 -40 26 -37 0 -40
2 -40 28 0 22 -8 31 -45 48 l-45 21 0 -24z"/>
<path d="M10251 1858 c-10 -24 -21 -50 -24 -58 -3 -8 -6 9 -6 38 -1 38 -5 52
-15 52 -15 0 -23 -36 -28 -124 -4 -49 -21 -57 -38 -17 -12 30 -35 47 -45 32
-7 -12 32 -121 51 -142 13 -14 13 -21 3 -37 -10 -17 -10 -23 0 -36 8 -9 20
-16 27 -16 8 0 14 -4 14 -10 0 -5 10 -10 23 -10 26 1 69 63 94 137 9 26 27 61
40 76 22 27 31 57 16 57 -4 0 -20 -12 -35 -27 -32 -30 -34 -23 -13 37 18 52
19 60 2 60 -7 0 -21 -19 -30 -42 -17 -41 -17 -29 -2 40 11 48 -12 41 -34 -10z"/>
<path d="M9642 1852 c-21 -2 -46 -16 -72 -41 -35 -33 -40 -43 -40 -83 0 -85
29 -126 68 -95 9 7 12 4 12 -12 0 -27 27 -28 35 -1 7 24 -1 40 -20 40 -11 0
-12 6 -5 24 6 17 5 26 -3 30 -9 3 -9 5 1 5 7 1 15 -6 17 -14 14 -43 17 -50 22
-37 3 6 8 10 13 7 5 -3 11 4 15 15 6 17 8 18 21 6 8 -8 14 -23 14 -32 0 -23
17 -6 22 21 2 14 -2 20 -14 19 -23 -2 -14 12 12 19 11 3 18 1 14 -4 -9 -16 23
-10 37 7 12 14 14 14 20 -3 12 -29 10 -43 -5 -37 -8 3 -16 -3 -19 -15 -8 -32
3 -32 34 0 24 25 29 38 29 79 0 73 -26 96 -110 101 -36 2 -80 3 -98 1z"/>
<path d="M5055 1555 c-22 -8 -59 -34 -82 -58 -105 -111 -74 -273 65 -343 43
-22 62 -26 106 -22 109 9 194 92 204 199 6 67 -18 128 -72 177 -65 60 -140 76
-221 47z m152 -44 c46 -21 89 -77 99 -129 4 -17 4 -32 1 -32 -3 0 -31 14 -62
30 -74 39 -147 41 -223 5 -69 -32 -76 -32 -67 3 18 76 100 142 175 142 19 0
54 -9 77 -19z"/>
<path d="M6056 1524 c-29 -20 -66 -64 -66 -78 0 -3 21 -21 46 -41 42 -31 54
-35 106 -35 33 0 69 5 81 11 31 16 77 61 77 75 0 11 -73 83 -88 85 -4 1 -33 3
-65 4 -45 1 -65 -3 -91 -21z"/>
<path d="M7136 1524 c-29 -20 -66 -64 -66 -78 0 -3 21 -21 46 -41 42 -31 54
-35 106 -35 33 0 69 5 81 11 31 16 77 61 77 75 0 11 -73 83 -88 85 -4 1 -33 3
-65 4 -45 1 -65 -3 -91 -21z"/>
<path d="M1897 1534 c-4 -4 -4 -18 -1 -30 7 -26 5 -27 -63 -24 -41 1 -41 1
-40 -32 2 -31 1 -33 -30 -30 -31 3 -33 2 -33 -28 0 -31 2 -32 30 -26 27 5 30
3 32 -22 1 -15 0 -46 -1 -70 l-3 -43 36 6 c48 9 73 0 56 -20 -19 -23 -4 -47
27 -43 25 3 28 7 25 36 -2 32 -2 32 43 32 41 0 45 2 45 25 0 17 -5 25 -18 25
-10 0 -23 5 -30 12 -15 15 -16 3 -2 -23 9 -17 7 -19 -17 -19 -21 0 -24 3 -15
12 7 7 12 19 12 27 0 12 -3 12 -12 3 -19 -19 -46 -14 -64 13 -21 33 -12 56 39
92 l43 30 28 -23 c34 -30 46 -30 45 -1 -2 47 -13 62 -44 62 -27 0 -30 3 -30
30 0 25 -5 31 -25 33 -14 2 -29 0 -33 -4z"/>
<path d="M2817 1502 c-14 -15 -17 -41 -17 -135 0 -138 5 -147 83 -147 45 0 56
-5 99 -41 44 -37 76 -44 65 -15 -21 55 -20 56 22 56 64 0 71 14 71 149 0 156
6 151 -172 151 -118 0 -137 -2 -151 -18z m298 -132 l0 -125 -52 -3 c-56 -3
-64 -13 -43 -53 16 -29 0 -23 -38 14 -28 27 -42 33 -95 37 l-62 5 -3 114 c-1
63 0 121 2 128 4 11 36 13 148 11 l143 -3 0 -125z"/>
<path d="M3357 1502 c-14 -15 -17 -41 -17 -135 0 -138 5 -147 83 -147 45 0 56
-5 99 -41 44 -37 76 -44 65 -15 -21 55 -20 56 22 56 64 0 71 14 71 149 0 156
6 151 -172 151 -118 0 -137 -2 -151 -18z m298 -132 l0 -125 -52 -3 c-56 -3
-64 -13 -43 -53 16 -29 0 -23 -38 14 -28 27 -42 33 -95 37 l-62 5 -3 114 c-1
63 0 121 2 128 4 11 36 13 148 11 l143 -3 0 -125z"/>
<path d="M3897 1502 c-14 -15 -17 -41 -17 -135 0 -138 5 -147 83 -147 45 0 56
-5 99 -41 44 -37 76 -44 65 -15 -21 55 -20 56 22 56 64 0 71 14 71 149 0 156
6 151 -172 151 -118 0 -137 -2 -151 -18z m298 -132 l0 -125 -52 -3 c-56 -3
-64 -13 -43 -53 16 -29 0 -23 -38 14 -28 27 -42 33 -95 37 l-62 5 -3 114 c-1
63 0 121 2 128 4 11 36 13 148 11 l143 -3 0 -125z"/>
<path d="M8833 1489 c-57 -28 -83 -72 -83 -139 0 -67 27 -112 84 -139 54 -26
88 -26 142 0 57 27 84 72 84 139 0 67 -27 112 -84 139 -54 26 -90 26 -143 0z
m123 -64 c12 -8 27 -28 34 -45 23 -56 -22 -120 -85 -120 -63 0 -108 64 -85
120 16 39 46 60 85 60 17 0 40 -7 51 -15z"/>
<path d="M253 1494 c-8 -4 -9 -13 -4 -27 7 -16 4 -29 -10 -46 -10 -13 -19 -30
-19 -39 0 -12 -3 -13 -12 -4 -18 18 -36 15 -43 -8 -5 -15 -12 -19 -25 -15 -13
4 -20 -1 -26 -17 -3 -12 -13 -28 -20 -36 -16 -16 -18 -41 -4 -62 7 -12 10 -8
10 15 1 27 2 28 10 9 5 -12 14 -25 21 -30 9 -5 10 3 6 34 -4 24 -3 43 3 47 5
3 10 -1 10 -10 0 -9 7 -29 15 -46 12 -23 13 -30 3 -33 -117 -33 -122 -31 106
-31 128 0 206 3 191 8 -20 7 -23 12 -15 27 16 29 12 56 -12 94 -15 23 -29 33
-39 30 -11 -3 -18 3 -22 16 -4 16 -11 19 -29 15 -18 -4 -27 1 -42 27 -11 18
-20 44 -20 57 -1 25 -12 33 -33 25z"/>
<path d="M6264 1397 c-2 -7 2 -30 11 -50 8 -20 13 -37 10 -37 -3 0 4 -18 15
-40 11 -22 18 -40 15 -40 -3 0 6 -22 20 -50 26 -52 45 -61 78 -36 16 13 16 16
-4 65 -12 28 -25 51 -29 51 -4 0 -15 18 -25 40 -10 22 -21 40 -25 40 -4 0 -13
13 -20 29 -13 33 -38 48 -46 28z"/>
<path d="M7344 1397 c-2 -7 2 -30 11 -50 8 -20 13 -37 10 -37 -3 0 4 -18 15
-40 11 -22 18 -40 15 -40 -3 0 6 -22 20 -50 26 -52 45 -61 78 -36 16 13 16 16
-4 65 -12 28 -25 51 -29 51 -4 0 -15 18 -25 40 -10 22 -21 40 -25 40 -4 0 -13
13 -20 29 -13 33 -38 48 -46 28z"/>
<path d="M8400 995 c-7 -8 -10 -25 -6 -39 6 -23 4 -24 -32 -19 -40 5 -92 -10
-92 -27 0 -8 15 -9 47 -4 45 7 46 6 40 -17 -4 -13 -7 -27 -7 -31 0 -5 -13 -8
-30 -8 -32 0 -50 -22 -50 -64 0 -26 -14 -35 -25 -16 -8 13 -42 13 -50 0 -9
-15 14 -50 34 -50 18 0 133 -76 140 -92 9 -25 91 -33 91 -9 0 5 -36 32 -80 61
-76 50 -79 53 -73 83 8 44 15 49 47 37 15 -5 39 -10 53 -10 22 0 24 -3 18 -22
-22 -69 4 -106 30 -43 9 20 18 49 22 66 5 25 3 29 -17 29 -18 0 -21 4 -16 23
3 12 6 25 6 30 0 15 48 6 73 -13 30 -24 37 -25 37 -6 0 21 -53 56 -83 56 -30
0 -44 15 -22 24 18 7 20 47 3 64 -16 16 -43 15 -58 -3z"/>
<path d="M772 959 c-38 -11 -73 -61 -70 -99 1 -14 -6 -37 -16 -52 -10 -16 -13
-29 -7 -32 5 -4 13 -27 17 -51 6 -46 9 -48 55 -45 19 1 28 -5 32 -19 5 -19 13
-21 82 -21 63 0 76 3 72 14 -17 43 -18 85 -3 121 33 77 15 148 -44 177 -38 20
-68 21 -118 7z"/>
<path d="M2959 941 c-47 -47 -38 -119 18 -149 82 -44 176 47 133 129 -13 24
-61 49 -95 49 -16 0 -38 -12 -56 -29z"/>
<path d="M4200 949 c0 -19 -11 -29 -53 -48 -28 -13 -69 -23 -90 -22 -21 0 -53
-5 -72 -13 -31 -13 -34 -13 -38 5 -3 10 -10 19 -16 19 -9 0 -9 -5 -1 -20 11
-21 7 -25 -34 -32 -15 -2 -20 -11 -20 -38 0 -29 4 -36 23 -38 27 -4 44 -44 39
-94 -4 -42 12 -50 46 -25 15 11 16 17 7 35 -6 11 -11 40 -11 63 0 36 2 40 15
29 13 -11 15 -10 10 1 -3 8 7 21 22 32 16 9 43 26 60 38 18 11 38 22 45 23 7
1 30 10 52 19 21 9 42 17 47 17 15 0 10 20 -11 47 l-20 26 0 -24z"/>
<path d="M6225 950 c-3 -10 1 -33 9 -49 19 -36 21 -70 4 -72 -7 -1 -29 -1 -49
0 -45 3 -99 -38 -99 -75 0 -14 -7 -35 -15 -48 -20 -31 -6 -42 70 -58 51 -10
59 -9 70 5 14 19 40 22 50 7 3 -5 18 -10 32 -10 26 0 26 0 7 21 -17 19 -18 21
-1 30 11 6 17 22 17 43 0 25 7 38 25 50 l24 16 -20 34 c-11 19 -26 37 -33 39
-8 3 -17 22 -20 42 -6 30 -10 35 -27 30 -11 -4 -19 -2 -19 4 0 19 -18 12 -25
-9z"/>
<path d="M1325 940 c22 -25 15 -34 -32 -37 -48 -3 -79 -26 -93 -69 -39 -118
41 -198 186 -183 87 9 125 42 131 116 6 78 -36 130 -110 135 -27 1 -42 8 -49
23 -12 21 -27 35 -42 35 -5 0 -1 -9 9 -20z"/>
<path d="M7290 931 c0 -5 16 -15 35 -21 19 -6 37 -15 40 -20 3 -5 -9 -3 -27 4
-58 23 -88 28 -88 13 0 -8 -27 -43 -60 -78 -56 -60 -60 -67 -60 -111 0 -27 4
-48 8 -48 8 0 228 42 290 56 20 4 22 10 22 67 0 59 -2 63 -34 90 -19 15 -41
27 -49 27 -7 0 -22 7 -33 15 -22 16 -44 19 -44 6z m138 -90 c14 -17 16 -87 3
-96 -9 -5 -264 -55 -283 -55 -5 0 -8 18 -8 40 0 22 3 40 8 40 12 0 267 53 271
57 3 1 -6 15 -20 30 -18 21 -19 24 -4 13 11 -8 26 -21 33 -29z"/>
<path d="M9345 896 c-17 -7 -43 -27 -57 -44 -93 -111 16 -279 156 -241 86 23
134 111 105 194 -13 38 -38 52 -30 17 2 -9 5 -38 8 -63 4 -41 1 -50 -27 -82
-51 -59 -122 -62 -181 -9 -60 54 -47 162 23 198 37 19 103 21 124 3 11 -9 18
-9 26 -1 7 7 1 15 -20 26 -37 19 -86 20 -127 2z"/>
<path d="M5016 873 c-3 -8 -6 -59 -6 -113 l0 -97 31 -7 c17 -3 71 -6 120 -6
l89 0 0 74 c0 40 -3 94 -6 118 l-6 46 -109 0 c-86 0 -109 -3 -113 -15z"/>
<path d="M1296 478 c-57 -55 -86 -153 -50 -165 7 -2 14 17 18 49 6 43 14 59
47 90 61 58 138 63 200 11 85 -72 77 -188 -18 -248 -33 -21 -43 -45 -19 -45
28 0 82 47 104 90 28 55 28 111 1 167 -33 68 -78 93 -166 93 -72 0 -73 0 -117
-42z"/>
<path d="M200 471 c-179 -63 -195 -309 -25 -394 87 -43 175 -28 245 43 163
162 -3 427 -220 351z m160 -36 c35 -18 67 -54 85 -97 39 -95 -8 -201 -107
-243 -130 -54 -277 64 -252 203 22 127 160 195 274 137z"/>
<path d="M240 355 l0 -55 -55 0 c-54 0 -55 0 -55 -29 0 -29 2 -30 53 -33 l52
-3 3 -52 c3 -51 4 -53 32 -53 28 0 29 2 32 53 l3 52 53 3 c50 3 52 4 52 32 0
28 -2 29 -52 32 l-53 3 -3 53 c-3 50 -4 52 -33 52 -29 0 -29 -1 -29 -55z"/>
<path d="M2264 415 c-11 -27 5 -45 46 -51 48 -8 56 -17 34 -38 -14 -14 -14
-18 0 -31 22 -23 171 -21 180 2 4 9 3 19 -1 22 -10 7 -48 74 -46 81 1 3 -1 7
-3 9 -2 2 -4 -1 -4 -7 0 -19 -84 -14 -140 8 -61 24 -59 24 -66 5z"/>
<path d="M4997 413 c-17 -16 -4 -51 35 -90 l42 -43 -42 -43 c-46 -47 -54 -82
-21 -92 16 -6 31 3 65 36 l44 43 44 -43 c48 -47 79 -51 84 -12 3 17 -8 36 -39
67 l-43 44 43 44 c31 31 42 50 39 67 -5 39 -36 35 -84 -12 l-44 -43 -43 42
c-40 40 -65 51 -80 35z"/>
<path d="M8128 375 c-31 -17 -58 -63 -58 -97 0 -35 34 -83 69 -97 66 -28 151
22 151 90 0 29 -1 29 -55 29 -48 0 -55 -2 -55 -20 0 -16 7 -20 31 -20 37 0 35
-19 -4 -38 -43 -21 -87 8 -87 59 0 39 32 63 74 56 38 -6 68 15 49 34 -18 18
-86 20 -115 4z"/>
<path d="M3420 295 l0 -75 -54 0 c-30 0 -57 -4 -60 -8 -6 -11 16 -54 30 -59
13 -4 40 19 46 39 4 10 8 10 19 1 9 -7 56 -13 119 -14 70 -1 112 -6 125 -15
45 -31 88 2 80 61 -6 49 -9 52 -56 60 -24 4 -43 14 -46 23 -8 22 -23 32 -49
32 -12 0 -27 7 -34 15 -8 10 -31 15 -66 15 l-54 0 0 -75z"/>
<path d="M1137 284 c-4 -4 -7 -58 -7 -120 0 -102 2 -114 19 -124 29 -15 253
-13 274 3 15 11 17 28 15 127 l-3 115 -146 3 c-80 1 -148 -1 -152 -4z m273
-139 l0 -85 -124 0 c-143 0 -136 -5 -136 101 l0 69 130 0 130 0 0 -85z"/>
<path d="M2330 225 c0 -39 -3 -45 -21 -45 -11 0 -17 5 -14 10 4 6 -5 10 -19
10 -24 0 -26 -3 -26 -44 l0 -43 180 0 180 1 0 43 c0 39 -2 43 -26 43 -14 0
-23 -4 -19 -10 3 -5 -3 -10 -14 -10 -18 0 -21 6 -21 45 l0 45 -100 0 -100 0 0
-45z"/>
</g>
</svg>
